Coordinates
version=1
nRows=4
nColumns=172
inDegrees=yes

Units are S.I. units (second, meters, Newtons, ...)
Angles are in degrees.

endheader
time	pelvis_tilt	pelvis_list	pelvis_rotation	pelvis_tx	pelvis_ty	pelvis_tz	hip_flexion_r	hip_adduction_r	hip_rotation_r	knee_angle_r	knee_angle_r_beta	ankle_angle_r	subtalar_angle_r	mtp_angle_r	hip_flexion_l	hip_adduction_l	hip_rotation_l	knee_angle_l	knee_angle_l_beta	ankle_angle_l	subtalar_angle_l	mtp_angle_l	Abs_FE	Abs_LB	Abs_AR	L5_S1_FE	L5_S1_LB	L5_S1_AR	L4_L5_FE	L4_L5_LB	L4_L5_AR	L3_L4_FE	L3_L4_LB	L3_L4_AR	L2_L3_FE	L2_L3_LB	L2_L3_AR	L1_L2_FE	L1_L2_LB	L1_L2_AR	T12_L1_FE	T12_L1_LB	T12_L1_AR	T11_T12_FE	T11_T12_LB	T11_T12_AR	T10_T11_FE	T10_T11_LB	T10_T11_AR	T9_T10_FE	T9_T10_LB	T9_T10_AR	T8_T9_FE	T8_T9_LB	T8_T9_AR	T7_T8_FE	T7_T8_LB	T7_T8_AR	T6_T7_FE	T6_T7_LB	T6_T7_AR	T5_T6_FE	T5_T6_LB	T5_T6_AR	T4_T5_FE	T4_T5_LB	T4_T5_AR	T3_T4_FE	T3_T4_LB	T3_T4_AR	T2_T3_FE	T2_T3_LB	T2_T3_AR	T1_T2_FE	T1_T2_LB	T1_T2_AR	T1_head_neck_FE	T1_head_neck_LB	T1_head_neck_AR	T12_r12R_X	T12_r12R_Y	T12_r12R_Z	T11_r11R_X	T11_r11R_Y	T11_r11R_Z	T10_r10R_X	T10_r10R_Y	T10_r10R_Z	T9_r9R_X	T9_r9R_Y	T9_r9R_Z	T8_r8R_X	T8_r8R_Y	T8_r8R_Z	T7_r7R_X	T7_r7R_Y	T7_r7R_Z	T6_r6R_X	T6_r6R_Y	T6_r6R_Z	T5_r5R_X	T5_r5R_Y	T5_r5R_Z	T4_r4R_X	T4_r4R_Y	T4_r4R_Z	T3_r3R_X	T3_r3R_Y	T3_r3R_Z	T2_r2R_X	T2_r2R_Y	T2_r2R_Z	T1_r1R_X	T1_r1R_Y	T1_r1R_Z	T12_r12L_X	T12_r12L_Y	T12_r12L_Z	T11_r11L_X	T11_r11L_Y	T11_r11L_Z	T10_r10L_X	T10_r10L_Y	T10_r10L_Z	T9_r9L_X	T9_r9L_Y	T9_r9L_Z	T8_r8L_X	T8_r8L_Y	T8_r8L_Z	T7_r7L_X	T7_r7L_Y	T7_r7L_Z	T6_r6L_X	T6_r6L_Y	T6_r6L_Z	T5_r5L_X	T5_r5L_Y	T5_r5L_Z	T4_r4L_X	T4_r4L_Y	T4_r4L_Z	T3_r3L_X	T3_r3L_Y	T3_r3L_Z	T2_r2L_X	T2_r2L_Y	T2_r2L_Z	T1_r1L_X	T1_r1L_Y	T1_r1L_Z	SternumRotZ	SternumRotX	SternumRotY	SternumX	SternumY	SternumZ	shoulder_elv_r	shoulder_rot_r	elv_angle_r	elbow_flex_r	pro_sup_r	wrist_flex_r	wrist_dev_r	shoulder_elv_l	shoulder_rot_l	elv_angle_l	elbow_flex_l	pro_sup_l	wrist_flex_l	wrist_dev_l
      7.51000000	    -19.77354650	     -4.87168106	     -1.49729439	      0.47866966	      1.14002683	     -0.19841892	     64.01377011	      6.64717682	      4.15692792	    108.12341382	      1.88710957	     -3.13418861	    -15.18104704	      0.00000000	     20.66091862	     -8.90291542	      1.88217749	     23.16844467	      0.40436564	    -18.82330411	    -11.16802453	      0.00000000	      0.00000000	      0.00000000	      0.00000000	    -23.08066110	      3.34073113	      5.91606276	    -17.63319080	      0.85065256	      0.72218231	    -13.09243961	      0.01868812	     -1.66010554	     -9.08980545	     -0.08704483	     -2.31830666	     -6.04268741	     -0.15116911	     -2.26172045	     -0.57227256	      0.09026378	     -1.63932288	      2.72497839	      0.19540609	     -0.95168525	      4.37300069	      0.14426673	     -0.44217911	      5.09437178	      0.15093104	     -0.09820792	      6.10240088	      0.08897862	      0.15513805	      7.00503003	      0.07175829	      0.31315081	      7.07465144	      0.33058988	      0.25295289	      5.84362888	      1.10862065	     -0.10558258	      2.23852590	      3.03371635	     -0.69501081	     -4.99183177	      6.45069627	     -1.22852505	    -16.00141741	     11.16521727	     -1.08216671	    -32.19993133	     16.44399442	     -1.20304478	      0.00000000	      0.00000000	      0.00000000	      0.00000000	      0.00000000	      0.00000000	      0.00000000	      0.00000000	      0.00000000	      0.00000000	      0.00000000	      0.00000000	      0.00000000	      0.00000000	      0.00000000	      0.00000000	      0.00000000	      0.00000000	      0.00000000	      0.00000000	      0.00000000	      0.00000000	      0.00000000	      0.00000000	      0.00000000	      0.00000000	      0.00000000	      0.00000000	      0.00000000	      0.00000000	      0.00000000	      0.00000000	      0.00000000	      0.00000000	      0.00000000	      0.00000000	     55.02320223	      0.00000000	      0.00000000	      0.00000000	      0.00000000	      0.00000000	      0.00000000	      0.00000000	      0.00000000	      0.00000000	      0.00000000	      0.00000000	      0.00000000	      0.00000000	      0.00000000	      0.00000000	      0.00000000	      0.00000000	      0.00000000	      0.00000000	      0.00000000	      0.00000000	      0.00000000	      0.00000000	      0.00000000	      0.00000000	      0.00000000	      0.00000000	      0.00000000	      0.00000000	      0.00000000	      0.00000000	      0.00000000	      0.00000000	      0.00000000	      0.00000000	      0.00000000	      0.00000000	      0.00000000	    -13.31943510	      6.78637633	      4.15507288	     -0.05848426	      0.05043096	     -0.02038751	     21.29565569	     -0.73133241	     55.08059100	     54.41095671	     46.46913091	      0.00000000	      0.00000000	    -31.25183677	     -7.96031563	     61.73796748	     40.52745373	     47.22522403	      0.00000000	      0.00000000
      7.52000000	    -20.06122124	     -5.30978701	     -1.47616644	      0.47859121	      1.14152919	     -0.19868667	     64.94069436	      6.95794137	      3.75923116	    107.80086458	      1.88148002	     -2.18434704	    -15.54668530	      0.00000000	     20.08958324	     -9.31729074	      2.01042661	     22.68979211	      0.39601158	    -19.27132318	    -10.98845676	      0.00000000	      0.00000000	      0.00000000	      0.00000000	    -23.06457005	      3.44660423	      5.92399444	    -17.61136722	      0.94486479	      0.72995784	    -13.07463793	      0.10218611	     -1.65066167	     -9.07756383	     -0.01396450	     -2.30618250	     -6.03292064	     -0.08734775	     -2.24957814	     -0.56408017	      0.14390004	     -1.62477248	      2.73642800	      0.23940566	     -0.93615235	      4.38958770	      0.17978398	     -0.42625953	      5.11727289	      0.17838145	     -0.08279461	      6.12979302	      0.10923095	      0.17016516	      7.03575066	      0.08471221	      0.32795651	      7.10772848	      0.33567102	      0.26783335	      5.87769887	      1.10525787	     -0.09006093	      2.27355955	      3.01976520	     -0.67852046	     -4.95227535	      6.42287640	     -1.21181469	    -15.94963369	     11.11880317	     -1.07039811	    -32.12184791	     16.38132672	     -1.20669756	      0.00000000	      0.00000000	      0.00000000	      0.00000000	      0.00000000	      0.00000000	      0.00000000	      0.00000000	      0.00000000	      0.00000000	      0.00000000	      0.00000000	      0.00000000	      0.00000000	      0.00000000	      0.00000000	      0.00000000	      0.00000000	      0.00000000	      0.00000000	      0.00000000	      0.00000000	      0.00000000	      0.00000000	      0.00000000	      0.00000000	      0.00000000	      0.00000000	      0.00000000	      0.00000000	      0.00000000	      0.00000000	      0.00000000	      0.00000000	      0.00000000	      0.00000000	     55.02555071	      0.00000000	      0.00000000	      0.00000000	      0.00000000	      0.00000000	      0.00000000	      0.00000000	      0.00000000	      0.00000000	      0.00000000	      0.00000000	      0.00000000	      0.00000000	      0.00000000	      0.00000000	      0.00000000	      0.00000000	      0.00000000	      0.00000000	      0.00000000	      0.00000000	      0.00000000	      0.00000000	      0.00000000	      0.00000000	      0.00000000	      0.00000000	      0.00000000	      0.00000000	      0.00000000	      0.00000000	      0.00000000	      0.00000000	      0.00000000	      0.00000000	      0.00000000	      0.00000000	      0.00000000	    -13.37679903	      6.73074728	      4.13964570	     -0.05834892	      0.04988807	     -0.02012429	     21.11801640	     -0.59949646	     55.06160832	     54.18953195	     46.41921183	      0.00000000	      0.00000000	    -31.17639240	     -8.01505357	     61.69456693	     40.18227551	     47.16726364	      0.00000000	      0.00000000
      7.53000000	    -20.16798987	     -5.35592049	     -1.42427963	      0.47839012	      1.14334409	     -0.19911741	     65.69150203	      6.92032225	      3.63059312	    107.40324603	      1.87454027	     -2.02149557	    -15.60390452	      0.00000000	     19.52678494	     -9.31707473	      1.95051636	     22.68306309	      0.39589414	    -19.33375715	    -10.96660403	      0.00000000	      0.00000000	      0.00000000	      0.00000000	    -23.08701537	      3.50024326	      5.91907297	    -17.62508180	      0.99351009	      0.72446315	    -13.08514653	      0.14447482	     -1.65539761	     -9.08646876	      0.02160062	     -2.30964143	     -6.04018750	     -0.05811970	     -2.25301934	     -0.56905618	      0.16688456	     -1.62720861	      2.73451038	      0.25659330	     -0.93822464	      4.39082201	      0.19201914	     -0.42820316	      5.12187017	      0.18574631	     -0.08487237	      6.13729923	      0.11235630	      0.16803584	      7.04602853	      0.08364263	      0.32585794	      7.12080327	      0.33012419	      0.26591505	      5.89342405	      1.09528086	     -0.09170002	      2.29207664	      3.00539397	     -0.68012299	     -4.93061152	      6.40478947	     -1.21383666	    -15.92404453	     11.09878784	     -1.07430283	    -32.09108381	     16.36380375	     -1.21345520	      0.00000000	      0.00000000	      0.00000000	      0.00000000	      0.00000000	      0.00000000	      0.00000000	      0.00000000	      0.00000000	      0.00000000	      0.00000000	      0.00000000	      0.00000000	      0.00000000	      0.00000000	      0.00000000	      0.00000000	      0.00000000	      0.00000000	      0.00000000	      0.00000000	      0.00000000	      0.00000000	      0.00000000	      0.00000000	      0.00000000	      0.00000000	      0.00000000	      0.00000000	      0.00000000	      0.00000000	      0.00000000	      0.00000000	      0.00000000	      0.00000000	      0.00000000	     55.05674422	      0.00000000	      0.00000000	      0.00000000	      0.00000000	      0.00000000	      0.00000000	      0.00000000	      0.00000000	      0.00000000	      0.00000000	      0.00000000	      0.00000000	      0.00000000	      0.00000000	      0.00000000	      0.00000000	      0.00000000	      0.00000000	      0.00000000	      0.00000000	      0.00000000	      0.00000000	      0.00000000	      0.00000000	      0.00000000	      0.00000000	      0.00000000	      0.00000000	      0.00000000	      0.00000000	      0.00000000	      0.00000000	      0.00000000	      0.00000000	      0.00000000	      0.00000000	      0.00000000	      0.00000000	    -13.35845647	      6.69786221	      4.12055484	     -0.05789845	      0.04982793	     -0.02058506	     21.08586033	     -0.52783360	     55.07241141	     54.16316068	     46.41589660	      0.00000000	      0.00000000	    -31.15008028	     -8.00866065	     61.71325658	     40.09523981	     47.15003225	      0.00000000	      0.00000000
      7.54000000	    -20.68421985	     -5.94802738	     -1.59786612	      0.47819025	      1.14537345	     -0.19874173	     66.66405491	      7.60097674	      3.22726480	    106.47132122	      1.85827511	     -0.86959957	    -16.10136841	      0.00000000	     19.23602450	    -10.00377903	      2.01258778	     22.23815397	      0.38812901	    -19.95588751	    -10.82496958	      0.00000000	      0.00000000	      0.00000000	      0.00000000	    -23.04244927	      3.59251976	      5.94189182	    -17.58021751	      1.07408071	      0.74760562	    -13.04774518	      0.21560226	     -1.63074314	     -9.05685494	      0.08388970	     -2.28263029	     -6.01409381	     -0.00313378	     -2.22594011	     -0.54576620	      0.21283395	     -1.59792227	      2.76084546	      0.29394304	     -0.90793549	      4.42246417	      0.22162923	     -0.39743512	      5.16013333	      0.20821137	     -0.05435298	      6.17984374	      0.12830837	      0.19839129	      7.09125191	      0.09282468	      0.35618202	      7.16726076	      0.33191310	      0.29654467	      5.93923299	      1.08866878	     -0.06014297	      2.33693317	      2.98691244	     -0.64731039	     -4.88237126	      6.36882122	     -1.18096204	    -15.86283419	     11.03669459	     -1.04914936	    -31.99873744	     16.27624906	     -1.21313801	      0.00000000	      0.00000000	      0.00000000	      0.00000000	      0.00000000	      0.00000000	      0.00000000	      0.00000000	      0.00000000	      0.00000000	      0.00000000	      0.00000000	      0.00000000	      0.00000000	      0.00000000	      0.00000000	      0.00000000	      0.00000000	      0.00000000	      0.00000000	      0.00000000	      0.00000000	      0.00000000	      0.00000000	      0.00000000	      0.00000000	      0.00000000	      0.00000000	      0.00000000	      0.00000000	      0.00000000	      0.00000000	      0.00000000	      0.00000000	      0.00000000	      0.00000000	     55.05107297	      0.00000000	      0.00000000	      0.00000000	      0.00000000	      0.00000000	      0.00000000	      0.00000000	      0.00000000	      0.00000000	      0.00000000	      0.00000000	      0.00000000	      0.00000000	      0.00000000	      0.00000000	      0.00000000	      0.00000000	      0.00000000	      0.00000000	      0.00000000	      0.00000000	      0.00000000	      0.00000000	      0.00000000	      0.00000000	      0.00000000	      0.00000000	      0.00000000	      0.00000000	      0.00000000	      0.00000000	      0.00000000	      0.00000000	      0.00000000	      0.00000000	      0.00000000	      0.00000000	      0.00000000	    -13.44549499	      6.63150524	      4.11978653	     -0.05768382	      0.04922468	     -0.02010548	     20.77034072	     -0.33949128	     55.02500357	     53.73204175	     46.31942389	      0.00000000	      0.00000000	    -31.02824407	     -8.10099757	     61.75830243	     39.40229553	     47.03480140	      0.00000000	      0.00000000
